<?xml version="1.0" standalone="no"?><!DOCTYPE svg PUBLIC "-//W3C//DTD SVG 1.1//EN" "http://www.w3.org/Graphics/SVG/1.1/DTD/svg11.dtd"><svg t="1533802049219" class="icon" style="" viewBox="0 0 1024 1024" version="1.1" xmlns="http://www.w3.org/2000/svg" p-id="4852" xmlns:xlink="http://www.w3.org/1999/xlink" width="200" height="200"><defs><style type="text/css"></style></defs><path d="M812 32h-600A180.16 180.16 0 0 0 32 212v600A180.16 180.16 0 0 0 212 992h600A180.16 180.16 0 0 0 992 812v-600A180.16 180.16 0 0 0 812 32z m140 780a140.16 140.16 0 0 1-140 140h-600a140.16 140.16 0 0 1-140-140v-600a140.16 140.16 0 0 1 140-140h600a140.16 140.16 0 0 1 140 140z" p-id="4853"></path><path d="M765.76 472H552V258.24a23.68 23.68 0 0 0-20-26.24A23.68 23.68 0 0 0 512 258.24V472H298.24A23.84 23.84 0 0 0 272 492 23.84 23.84 0 0 0 298.24 512H512v213.76A23.68 23.68 0 0 0 532 752a23.68 23.68 0 0 0 20-26.24V512h213.76a23.84 23.84 0 0 0 26.24-20 23.84 23.84 0 0 0-26.24-20z" p-id="4854"></path></svg>