<svg id="图层_1" data-name="图层 1" xmlns="http://www.w3.org/2000/svg" viewBox="0 0 200 198.88"><defs><style>.cls-1{fill:#333;}</style></defs><title>ico-automation equipment</title><path class="cls-1" d="M151.4,173.3H48a22.43,22.43,0,0,1-22.4-22.4V47.5A22.43,22.43,0,0,1,48,25.1H151.4a22.43,22.43,0,0,1,22.4,22.4V150.9a22.36,22.36,0,0,1-22.4,22.4ZM48,35.4A12.08,12.08,0,0,0,35.9,47.5V150.9A12.08,12.08,0,0,0,48,163H151.4a12.08,12.08,0,0,0,12.1-12.1V47.5a12.08,12.08,0,0,0-12.1-12.1ZM194.5,67.1H181.8a5.2,5.2,0,0,1,0-10.4h12.7a5.2,5.2,0,0,1,0,10.4Zm0,24.9H181.8a5.2,5.2,0,0,1,0-10.4h12.7a5.16,5.16,0,0,1,5.2,5.2A5.23,5.23,0,0,1,194.5,92Zm0,24.8H181.8a5.2,5.2,0,0,1,0-10.4h12.7a5.2,5.2,0,0,1,0,10.4Zm0,24.8H181.8a5.2,5.2,0,0,1,0-10.4h12.7a5.2,5.2,0,0,1,0,10.4ZM17.6,67.1H4.9a5.2,5.2,0,0,1,0-10.4H17.6a5.16,5.16,0,0,1,5.2,5.2A5.29,5.29,0,0,1,17.6,67.1Zm0,24.9H4.9a5.2,5.2,0,0,1,0-10.4H17.6a5.16,5.16,0,0,1,5.2,5.2A5.36,5.36,0,0,1,17.6,92Zm0,24.8H4.9a5.2,5.2,0,0,1,0-10.4H17.6a5.16,5.16,0,0,1,5.2,5.2A5.29,5.29,0,0,1,17.6,116.8Zm0,24.8H4.9a5.2,5.2,0,1,1,0-10.4H17.6a5.16,5.16,0,0,1,5.2,5.2A5.23,5.23,0,0,1,17.6,141.6Zm115.53,52.24.14-12.7a5.2,5.2,0,1,1,10.39.11l-.13,12.7a5.2,5.2,0,0,1-10.4-.11Zm-24.9-.26.14-12.7a5.2,5.2,0,1,1,10.4.11l-.14,12.69a5.16,5.16,0,0,1-5.25,5.15A5.24,5.24,0,0,1,108.23,193.58Zm-24.8-.27.14-12.7a5.2,5.2,0,0,1,10.4.11l-.14,12.7a5.2,5.2,0,1,1-10.4-.11Zm-24.79-.26.13-12.7a5.2,5.2,0,0,1,10.4.11L69,193.16a5.2,5.2,0,1,1-10.39-.11ZM136.13,18.84l.14-12.7a5.2,5.2,0,1,1,10.39.11L146.53,19a5.2,5.2,0,0,1-10.4-.11Zm-24.9-.26.14-12.7a5.2,5.2,0,1,1,10.4.11l-.14,12.69a5.16,5.16,0,0,1-5.25,5.15A5.24,5.24,0,0,1,111.23,18.58Zm-24.8-.27.14-12.7A5.2,5.2,0,0,1,97,5.72l-.14,12.7a5.2,5.2,0,1,1-10.4-.11Zm-24.79-.26.13-12.7a5.2,5.2,0,0,1,10.4.11L72,18.16a5.2,5.2,0,1,1-10.39-.11Z" transform="translate(0.3 -0.21)"/><path class="cls-1" d="M96,90.2H30.7V83.3H95.9A5.13,5.13,0,0,0,99.3,82l26-22.7,4.5,5.2-26,22.7A11.21,11.21,0,0,1,96,90.2Z" transform="translate(0.3 -0.21)"/><path class="cls-1" d="M117.4,62.1a10.3,10.3,0,1,0,20.6,0h0a10.3,10.3,0,1,0-20.6,0Z" transform="translate(0.3 -0.21)"/><path class="cls-1" d="M76.3,139.1l-4.5-5.2,26-22.7a12.14,12.14,0,0,1,7.9-3h65.2v6.9H105.7a5.13,5.13,0,0,0-3.4,1.3Z" transform="translate(0.3 -0.21)"/><path class="cls-1" d="M63.7,136.3a10.3,10.3,0,1,0,20.6,0h0a10.3,10.3,0,1,0-20.6,0Z" transform="translate(0.3 -0.21)"/></svg>