<svg id="图层_1" data-name="图层 1" xmlns="http://www.w3.org/2000/svg" viewBox="0 0 185.34 185.39"><title>ico-barcode management</title><path d="M7.66,66.3V16.24s-.18-9.42,10-9.86h50V17.47l-43.73-.09s-4.84.71-5.28,4.75c0,4.32-.08,44.17-.08,44.17Zm125.42-60h50.07s9.41-.18,9.85,10v50H181.91L182,22.62s-.7-4.84-4.75-5.28l-44.17-.09V6.34ZM7.66,131.77v50.06s-.18,9.41,10,9.85h50V180.6l-43.73.09s-4.84-.71-5.28-4.76c0-4.31-.08-44.16-.08-44.16Zm125.42,60h50.07s9.41.17,9.85-10v-50H181.91l.09,43.73s-.7,4.84-4.75,5.28l-44.17.09v10.91ZM7.66,93.32H193v11.35H7.66V93.32ZM34,33.38h8.91V164.59H34Zm20.46,0h8.9V164.59h-8.9Zm15.09,0h8.9V164.59h-8.9Zm37.47,0H116V164.59h-8.91Zm50.16,0h8.91V164.59h-8.91Zm-72.54,0h15.66V164.59H84.67Zm37.47,0h25.48V164.59H122.14Z" transform="translate(-7.66 -6.34)"/></svg>