<?xml version="1.0" encoding="utf-8"?>
<!-- Generator: Adobe Illustrator 22.0.0, SVG Export Plug-In . SVG Version: 6.00 Build 0)  -->
<svg version="1.1" id="图层_1" xmlns="http://www.w3.org/2000/svg" xmlns:xlink="http://www.w3.org/1999/xlink" x="0px" y="0px"
	 viewBox="0 0 200 200" style="enable-background:new 0 0 200 200;" xml:space="preserve">
<path d="M196.3,41.3L100,0L3.7,41.3V159l96.3,41l8.3-3.5h1.8v-0.8l86.3-36.7V41.3z M100,76.4L75.6,66l68.6-31.7
	c0.2-0.1,0.3-0.2,0.4-0.3l27.4,11.7L100,76.4z M127.7,26.8L58.5,58.8l-30.4-13L100,15C100,15,127.7,26.8,127.7,26.8z M17.4,56.2
	L45,67.9v42.8c0,3.8,3.1,6.9,6.9,6.9c3.8,0,6.9-3.1,6.9-6.9V73.8l0,0l37.6,16v93.7l-78.9-33.6V56.2z M110.1,180.8V87.1l72.5-30.9
	v93.7L110.1,180.8z"/>
</svg>
