<?xml version="1.0" standalone="no"?><!DOCTYPE svg PUBLIC "-//W3C//DTD SVG 1.1//EN" "http://www.w3.org/Graphics/SVG/1.1/DTD/svg11.dtd"><svg t="1533802061065" class="icon" style="" viewBox="0 0 1024 1024" version="1.1" xmlns="http://www.w3.org/2000/svg" p-id="5195" xmlns:xlink="http://www.w3.org/1999/xlink" width="200" height="200"><defs><style type="text/css"></style></defs><path d="M812 32h-600A180.16 180.16 0 0 0 32 212v600A180.16 180.16 0 0 0 212 992h600A180.16 180.16 0 0 0 992 812v-600A180.16 180.16 0 0 0 812 32z m140 780a140.16 140.16 0 0 1-140 140h-600a140.16 140.16 0 0 1-140-140v-600a140.16 140.16 0 0 1 140-140h600a140.16 140.16 0 0 1 140 140z" p-id="5196"></path><path d="M715.84 308.16a23.84 23.84 0 0 0-32 4.48L532 464l-151.2-151.36a23.84 23.84 0 0 0-32-4.48 23.84 23.84 0 0 0 4.48 32l151.2 151.2L352 643.2a23.84 23.84 0 0 0-4.48 32 23.68 23.68 0 0 0 32-4.48l151.2-151.2L683.04 672a20.8 20.8 0 1 0 28.32-28.32L560 492l151.2-151.2a23.84 23.84 0 0 0 4.64-32.64z" p-id="5197"></path></svg>