<?xml version="1.0" encoding="UTF-8"?>
<svg width="16px" height="14px" viewBox="0 0 16 14" version="1.1" xmlns="http://www.w3.org/2000/svg" xmlns:xlink="http://www.w3.org/1999/xlink">
    <path d="M11.0770837,6.03132586 L11.0770837,5.93256397 L10.069449,5.93256397 L9.97200395,5.95257972 L9.97068713,6.05002478 C9.95462186,7.28046628 8.67967167,7.6194171 8.00993435,7.62679132 C7.33124262,7.6194171 6.04707465,7.27677917 6.0452311,6.03132586 L6.04496773,5.93256397 L4.923296,5.93256397 L4.923296,6.03132586 C4.92118908,7.27677917 3.63991812,7.6194171 2.96465014,7.62679132 C1.78846184,7.61572999 1.4263349,7.41241217 1.19747067,7.06424358 C1.07079208,6.87356729 1.07079208,6.87356729 1.24382292,6.46245445 L2.96096303,2.36423095 C3.03312505,2.20752874 3.19088072,2.10639656 3.36312146,2.10639656 L12.3591447,2.10639656 C12.5313855,2.10639656 12.6894045,2.20752874 12.7615665,2.36423095 L12.8084455,2.45482852 L12.8137128,2.45219487 L14.7481291,6.06846034 L14.7826299,6.15247379 C14.9467063,6.55252529 14.960928,6.85934557 14.8247683,7.06424358 L14.824505,7.06450695 C14.6019615,7.4031944 14.2250861,7.61572999 13.0375731,7.62679132 C12.3673091,7.61968047 11.0949925,7.28072965 11.0770837,6.03132586 L11.0770837,6.03132586 Z M3.03391515,8.73187106 C3.83612508,8.70816821 4.91170793,8.39608062 5.48742393,7.59097367 C6.0557657,8.38501929 7.11212291,8.69947716 7.91248928,8.7308176 L7.91248928,8.73397798 L8.01098781,8.73318789 L8.11001307,8.73424135 L8.11001307,8.73108096 C8.90221513,8.70184744 9.95172485,8.39160342 10.5240171,7.60414193 C11.1194855,8.42136367 12.2314127,8.7247602 13.0386266,8.73318789 C13.1134222,8.73318789 13.1916417,8.73213443 13.2709145,8.7300275 L13.2709145,13.2649103 C13.2709145,13.5498712 13.0391533,13.7816325 12.7541923,13.7816325 L3.55063737,13.7816325 C3.26567639,13.7816325 3.03391515,13.5498712 3.03391515,13.2649103 L3.03391515,8.73187106 Z M15.8405673,6.25887327 L15.8566326,6.2525525 L13.7439182,1.65972944 L13.692562,1.57176552 L13.6841343,1.57597936 C13.4576404,1.21859299 13.06707,1 12.6438424,1 L3.36101454,1 C2.90486627,1 2.48743267,1.25256708 2.26989314,1.66394328 L0.191679556,6.1553708 L0.151648069,6.25834654 L0.1574421,6.26019009 C-0.0724755862,6.87067027 -0.0506162873,7.3910796 0.223283362,7.8085132 C0.519832405,8.2591308 1.09291475,8.54593534 1.92751858,8.66155259 L1.92751858,13.5714672 C1.92751858,14.294931 2.51613946,14.8835518 3.23960325,14.8835518 L13.0607492,14.8835518 C13.784213,14.8835518 14.3728339,14.294931 14.3728339,13.5714672 L14.3728339,8.66550307 C15.0478385,8.56700454 15.4326148,8.329976 15.7726191,7.81114685 C16.050996,7.39344989 16.0739087,6.87146037 15.8405673,6.25887327 L15.8405673,6.25887327 Z" id="Fill-1"></path>
</svg>