<?xml version="1.0" encoding="utf-8"?>
<!-- Generator: Adobe Illustrator 22.0.0, SVG Export Plug-In . SVG Version: 6.00 Build 0)  -->
<svg version="1.1" id="图层_1" xmlns="http://www.w3.org/2000/svg" xmlns:xlink="http://www.w3.org/1999/xlink" x="0px" y="0px"
	 viewBox="0 0 200 200" style="enable-background:new 0 0 200 200;" xml:space="preserve">
<path d="M177,112.5h-3.1v-25h-67.5V75h18.3c13.6,0,24.7-11.3,24.7-25.1V25.1c0-13.9-11.1-25.1-24.7-25.1L75.8,0
	C62.2,0,51.1,11.3,51.1,25.1v24.7C51.1,63.7,62.2,75,75.8,75h18.3v12.5H26.6v25h-3.1c-11.9,0-21.5,9.8-21.5,21.9v43.7
	c0,12.1,9.7,21.9,21.5,21.9h18.4c11.9,0,21.5-9.8,21.5-21.9v-43.7c0-12.1-9.7-21.9-21.5-21.9l-3.1,0V100h55.3v12.5
	c-10.2,0.5-18.4,9.2-18.4,19.8v47.9c0,10.9,8.7,19.8,19.5,19.8h10.2c10.7,0,19.5-8.9,19.5-19.8v-47.9c0-10.6-8.2-19.2-18.4-19.8V100
	h55.3v12.5h-3.1c-11.9,0-21.5,9.8-21.5,21.9v43.7c0,12.1,9.7,21.9,21.5,21.9H177c11.9,0,21.5-9.8,21.5-21.9v-43.7
	C198.5,122.3,188.8,112.5,177,112.5z M63.4,49.8V25.1c0-7,5.6-12.6,12.4-12.6h48.8c6.9,0,12.4,5.7,12.4,12.6l0,24.7
	c0,7-5.6,12.6-12.4,12.6H75.8C69,62.5,63.4,56.8,63.4,49.8z M51.1,134.4v43.7c0,5.2-4.1,9.4-9.2,9.4H23.5c-5.1,0-9.2-4.2-9.2-9.4
	v-43.7c0-5.2,4.1-9.4,9.2-9.4h18.4C47,125,51.1,129.2,51.1,134.4z M112.5,132.3v47.9c0,4-3.2,7.3-7.2,7.3H95.1c-4,0-7.2-3.3-7.2-7.3
	l0-47.9c0-4,3.2-7.3,7.2-7.3h10.2C109.3,125,112.5,128.2,112.5,132.3z M186.2,178.1c0,5.2-4.1,9.4-9.2,9.4h-18.4
	c-5.1,0-9.2-4.2-9.2-9.4v-43.7c0-5.2,4.1-9.4,9.2-9.4H177c5.1,0,9.2,4.2,9.2,9.4L186.2,178.1z"/>
</svg>
