<?xml version="1.0" encoding="utf-8"?>
<!-- Generator: Adobe Illustrator 22.0.0, SVG Export Plug-In . SVG Version: 6.00 Build 0)  -->
<svg version="1.1" id="图层_1" xmlns="http://www.w3.org/2000/svg" xmlns:xlink="http://www.w3.org/1999/xlink" x="0px" y="0px"
	 viewBox="0 0 200 200" style="enable-background:new 0 0 200 200;" xml:space="preserve">
<path d="M100,0C44.3,0-0.5,44.8-0.5,100.5S44.3,201,100,201s100.5-44.8,100.5-100.5S155.7,0,100,0z M150.2,24.2c0,0.9,0,2.3,0,3.2
	c0,9.6-0.9,18.7-2.7,27.9c-6.4,1.4-11,6.9-11,13.2c0,3.7,1.4,7.3,4.1,9.6c-3.2,7.3-6.4,14.6-11,21.5c-16.9-19.2-28.8-43.4-32.9-70.3
	c10.5-6.4,21.9-11.4,33.8-14.6C137.5,16.9,144.3,20.1,150.2,24.2z M131.1,114.2c8.2,7.8,16.9,14.6,26.5,20.1
	c-9.6,1.8-19.6,2.7-30.1,2.7c-4.6,0-9.1-0.5-13.7-0.5c0-0.9,0-1.8-0.5-2.7C119.6,127.9,125.6,121.1,131.1,114.2z M100,9.1
	c5,0,10.1,0.5,15.1,1.4c-6.4,2.7-12.8,5.5-19.2,8.7c-0.5-3.2-0.5-6.4-0.5-9.6C96.8,9.1,98.6,9.1,100,9.1z M124.7,107.4
	c-5,6.9-10.5,12.8-16.4,18.7c-2.3-1.8-5-2.7-8.2-2.7c-5.9,0-11,3.7-12.8,9.1c-18.3-4.6-35.6-11.4-51.2-21
	c4.1-15.5,11-30.2,19.6-42.9c0.9,0,1.8,0.5,3.2,0.5c7.8,0,13.7-5.9,13.7-13.7c0-1.8-0.5-3.7-0.9-5.5c5.5-5.5,11-10,16.9-14.6
	C93.6,62.6,106.4,87.3,124.7,107.4z M22.3,148.5c-8.2-13.7-13.2-29.2-13.7-46.1c5.5,4.6,11,9.1,16.9,12.8
	c-1.8,10.1-3.2,20.6-3.2,31.1C22.3,147.1,22.3,148,22.3,148.5z M28.3,106c-6.9-4.6-12.8-9.6-18.7-15.1c4.6-41.1,36.5-74,77.2-80.4
	c0,5,0.5,9.6,0.9,14.6c-7.8,5.5-15.1,11.4-21.9,17.8c-2.3-1.4-4.6-1.8-6.9-1.8c-7.8,0-13.7,5.9-13.7,13.7c0,3.2,1.4,5.9,3.2,8.7
	C39.2,76.3,32.4,90.5,28.3,106z M32.4,161.7c-0.5-5-0.9-10-0.9-15.5c0-8.7,0.9-17.4,2.7-25.6c16.4,9.6,34.3,16.9,53,21
	c0,0.5,0,0.5,0.5,0.9c-16,10.5-34.3,17.4-53.9,20.6C32.8,162.6,32.8,162.2,32.4,161.7z M100,191.9c-22.4,0-42.5-8.2-58.5-21.5
	c19.2-3.7,36.5-11,52.1-21.5c1.8,1.4,4.1,1.8,6.4,1.8c4.6,0,8.2-2.3,11-5.5c5.5,0.5,11,0.9,16.4,0.9c14.6,0,28.8-1.8,42.5-5
	c3.2,1.4,6.4,3.2,9.6,4.1C164,173.1,134.3,191.9,100,191.9z M170.8,131.6c-12.8-6.4-24.7-15.1-34.7-25.1c5-7.8,9.1-16,12.8-24.2
	c0.5,0,0.9,0,1.4,0c7.8,0,13.7-5.9,13.7-13.7c0-5.5-3.2-10-7.8-12.3c1.8-8.2,2.7-16.4,2.7-25.1c19.6,16.9,32,41.6,32,69.4
	c0,9.1-1.4,17.4-3.7,25.6C182.2,128.4,176.7,130.2,170.8,131.6z"/>
</svg>
