<?xml version="1.0" standalone="no"?><!DOCTYPE svg PUBLIC "-//W3C//DTD SVG 1.1//EN"
        "http://www.w3.org/Graphics/SVG/1.1/DTD/svg11.dtd">
<svg t="1533802064164" class="icon" style="" viewBox="0 0 1024 1024" version="1.1" xmlns="http://www.w3.org/2000/svg"
     p-id="5309" xmlns:xlink="http://www.w3.org/1999/xlink" width="200" height="200">
    <defs>
        <style type="text/css"></style>
    </defs>
    <path
            d="M812 992h-600A180.16 180.16 0 0 1 32 812v-600A180.16 180.16 0 0 1 212 32h600A180.16 180.16 0 0 1 992 212v600A180.16 180.16 0 0 1 812 992zM212 72a140.16 140.16 0 0 0-140 140v600a140.16 140.16 0 0 0 140 140h600a140.16 140.16 0 0 0 140-140v-600a140.16 140.16 0 0 0-140-140z"
            p-id="5310"></path>
    <path
            d="M565.28 652V432a20.48 20.48 0 0 1 40.8 0v220c1.92 26.08-40.8 26.08-40.8 0z m-124.48 0V432a20.48 20.48 0 0 1 40.8 0v220c2.08 26.08-40.64 26.08-40.64 0z m355.68-320h-104.8v-40.32a60.16 60.16 0 0 0-62.24-59.68H419.52a60.16 60.16 0 0 0-62.24 59.68v39.2h-104.96a19.68 19.68 0 1 0 0 39.2h544c25.6 1.92 25.6-37.28 0.32-37.28zM400 291.68a21.12 21.12 0 0 1 21.44-20.48h209.92a18.56 18.56 0 0 1 19.36 20.48v39.2H400zM670.24 792H378.72a60.16 60.16 0 0 1-62.24-59.68V432a21.12 21.12 0 0 1 21.44-20.48A20 20 0 0 1 359.36 432v300.32A21.12 21.12 0 0 0 380.64 752H672a21.12 21.12 0 0 0 21.44-20.48V433.6a20.48 20.48 0 0 1 40.8 0v298.72a64 64 0 0 1-64 59.68z"
            p-id="5311"></path>
</svg>
