<?xml version="1.0" standalone="no"?><!DOCTYPE svg PUBLIC "-//W3C//DTD SVG 1.1//EN" "http://www.w3.org/Graphics/SVG/1.1/DTD/svg11.dtd"><svg t="1533802068911" class="icon" style="" viewBox="0 0 1024 1024" version="1.1" xmlns="http://www.w3.org/2000/svg" p-id="5423" xmlns:xlink="http://www.w3.org/1999/xlink" width="200" height="200"><defs><style type="text/css"></style></defs><path d="M813.6 997.92h-600A180.16 180.16 0 0 1 33.6 817.92v-600A180.16 180.16 0 0 1 213.6 37.92h600A180.16 180.16 0 0 1 993.6 217.92v600a180.16 180.16 0 0 1-180 180z m-600-920a140.16 140.16 0 0 0-140 140v600a140.16 140.16 0 0 0 140 140h600a140.16 140.16 0 0 0 140-140v-600a140.16 140.16 0 0 0-140-140z" p-id="5424"></path><path d="M715.84 772.16a12.48 12.48 0 0 1-12.48 12.64H361.12a12.48 12.48 0 0 1-12.48-12.64V511.04a12.48 12.48 0 0 1 12.48-12.64H704a12.48 12.48 0 0 1 12.48 12.64zM400 412.16a137.92 137.92 0 0 1 86.08-128 135.52 135.52 0 0 1 182.72 110.56 432 432 0 0 1 1.44 61.12c0 4.8-3.36 4.16-6.24 4.16h-256c-8.64 0-8.64 0-8.64-8.48 0.64-21.6 0.64-17.76 0.64-39.36z m312.96 48c-11.36 0-10.56 1.44-10.56-10.88V406.4a167.52 167.52 0 0 0-247.2-144 164 164 0 0 0-88 146.08v38.56c0 16 1.92 13.12-12.96 13.28a38.24 38.24 0 0 0-39.52 40.16v280a40.96 40.96 0 0 0 40.8 41.28H710.56a38.24 38.24 0 0 0 40.32-41.12V503.68a61.44 61.44 0 0 0 0-11.52 38.4 38.4 0 0 0-38.4-32.16z" p-id="5425"></path><path d="M540 539.84a49.28 49.28 0 0 0-51.2 31.04 50.24 50.24 0 0 0 16 58.4 19.2 19.2 0 0 1 8.48 16.96v37.28a371.04 371.04 0 0 0 0.96 40 20.16 20.16 0 0 0 20 16 19.36 19.36 0 0 0 19.36-16 36.64 36.64 0 0 0 0.8-9.12v-65.6a22.4 22.4 0 0 1 9.6-20 48 48 0 0 0 18.88-49.76 49.44 49.44 0 0 0-42.72-40" p-id="5426"></path></svg>