<?xml version="1.0" encoding="utf-8"?>
<!-- Generator: Adobe Illustrator 22.0.0, SVG Export Plug-In . SVG Version: 6.00 Build 0)  -->
<svg version="1.1" id="图层_1" xmlns="http://www.w3.org/2000/svg" xmlns:xlink="http://www.w3.org/1999/xlink" x="0px" y="0px"
	 viewBox="0 0 200 200" style="enable-background:new 0 0 200 200;" xml:space="preserve">
<style type="text/css">
	.st0{fill:#333333;}
</style>
<path class="st0" d="M78.8,124.6c-25.2-1.6-46.8-8.4-59.4-17.8V125c0,12.4,25.7,22.7,59.4,24.6v12.5c-25.2-1.6-46.8-8.4-59.4-17.8
	v18.2H7.5V43.8C7.5,19.6,44.7,0,90.6,0c45.9,0,83.2,19.6,83.2,43.8v39.5h-11.9V66.3c-14.6,12.7-41,21.2-71.3,21.2S33.9,79,19.3,66.3
	v21.2c0,12.4,25.7,22.7,59.4,24.7L78.8,124.6L78.8,124.6z M90.6,200c-45.9,0-83.2-16.8-83.2-37.5h11.9c0,13.8,31.9,25,71.3,25V200z
	 M90.6,75c39.4,0,71.3-14,71.3-31.2c0-17.3-31.9-31.3-71.3-31.3c-39.4,0-71.3,14-71.3,31.3C19.3,61,51.3,75,90.6,75L90.6,75z
	 M194.1,157l-8.3-5.1c0.5-2.7,0.8-5.4,0.8-8.2c0-2.7-0.3-5.5-0.8-8.2l8.3-5.1c3.4-2.1,4.5-6.7,2.6-10.3l-7.1-13
	c-1.9-3.6-6.2-4.8-9.6-2.8c0,0-0.1,0-0.1,0.1l-8.4,5.1c-3.9-3.6-8.4-6.4-13.3-8.3V95c0-4.1-3.2-7.5-7.1-7.5H137
	c-3.9,0-7.1,3.4-7.1,7.5c0,0,0,0,0,0v6.4c-4.9,1.9-9.4,4.7-13.3,8.3l-8.4-5.1c-3.4-2.1-7.7-0.9-9.6,2.7c0,0,0,0.1,0,0.1l-7.1,13
	c-2,3.6-0.8,8.2,2.6,10.3l8.3,5.1c-0.5,2.7-0.7,5.4-0.8,8.2c0,2.8,0.3,5.5,0.8,8.2l-8.3,5.1c-3.4,2.1-4.5,6.7-2.6,10.3l7.1,13
	c1.9,3.6,6.2,4.8,9.6,2.8c0,0,0.1,0,0.1,0l8.4-5.1c3.9,3.6,8.4,6.4,13.3,8.3v6.4c0,4.1,3.2,7.5,7.1,7.5h14.1c3.9,0,7.1-3.4,7.1-7.5
	v-6.4c4.9-1.9,9.4-4.7,13.3-8.3l8.4,5.1c3.4,2.1,7.7,0.8,9.6-2.7c0,0,0,0,0-0.1l7.1-13C198.6,163.7,197.4,159.1,194.1,157L194.1,157
	z M185.3,164.4l-3.3,5.8c-0.9,1.6-2.9,2.2-4.5,1.2l-9.1-5.4c-4.7,5.5-11,9.2-17.9,10.7v7.4c0,1.9-1.5,3.4-3.3,3.4h-6.5
	c-1.8,0-3.2-1.5-3.3-3.4c0,0,0,0,0,0v-7.4c-6.9-1.4-13.2-5.2-17.9-10.7l-9.1,5.4c-1.6,0.9-3.5,0.4-4.5-1.2l-3.3-5.8
	c-0.9-1.6-0.4-3.6,1.1-4.5c0,0,0,0,0.1,0l9.1-5.4c-1.1-3.4-1.7-7-1.7-10.6c0-3.7,0.6-7.3,1.7-10.6l-9.1-5.4
	c-1.5-0.9-2.1-2.9-1.2-4.5c0,0,0,0,0-0.1l3.3-5.8c0.9-1.6,2.9-2.2,4.5-1.2l9.1,5.4c4.7-5.5,11-9.2,17.9-10.7v-7.4
	c0-1.9,1.5-3.4,3.3-3.4h6.5c1.8,0,3.3,1.5,3.3,3.4v7.4c6.9,1.4,13.2,5.2,17.9,10.7l9.1-5.4c1.6-0.9,3.5-0.4,4.5,1.2l3.3,5.8
	c0.9,1.6,0.4,3.6-1.1,4.5c0,0,0,0-0.1,0l-9.1,5.4c1.1,3.3,1.7,6.9,1.7,10.6c0,3.7-0.6,7.3-1.7,10.6l9.1,5.4
	C185.6,160.7,186.2,162.7,185.3,164.4C185.3,164.3,185.3,164.4,185.3,164.4L185.3,164.4z M144.1,125c-9.8,0-17.8,8.4-17.8,18.8
	c0,10.4,8,18.8,17.8,18.8l0,0c9.8,0,17.8-8.4,17.8-18.8C161.9,133.4,154,125,144.1,125z M144.1,150c-3.3,0-5.9-2.8-5.9-6.3
	c0-3.5,2.7-6.3,5.9-6.3c3.3,0,5.9,2.8,5.9,6.3C150.1,147.2,147.4,150,144.1,150z"/>
</svg>
