<?xml version="1.0" standalone="no"?><!DOCTYPE svg PUBLIC "-//W3C//DTD SVG 1.1//EN" "http://www.w3.org/Graphics/SVG/1.1/DTD/svg11.dtd"><svg t="1533802053063" class="icon" style="" viewBox="0 0 1024 1024" version="1.1" xmlns="http://www.w3.org/2000/svg" p-id="4966" xmlns:xlink="http://www.w3.org/1999/xlink" width="200" height="200"><defs><style type="text/css"></style></defs><path d="M809.76 992.8h-600A180.16 180.16 0 0 1 29.76 812.8V212.8A180.16 180.16 0 0 1 209.76 32.8h600A180.16 180.16 0 0 1 989.76 212.8v600a180.16 180.16 0 0 1-180 180z m-600-920a140.16 140.16 0 0 0-140 140v600a140.16 140.16 0 0 0 140 140h600a140.16 140.16 0 0 0 140-140V212.8a140.16 140.16 0 0 0-140-140z" p-id="4967"></path><path d="M536.16 534.72a49.28 49.28 0 0 0-51.2 31.04 50.24 50.24 0 0 0 16 58.4 19.2 19.2 0 0 1 8.48 16.96v37.28a370.24 370.24 0 0 0 0.96 40 20.16 20.16 0 0 0 20 16 19.36 19.36 0 0 0 19.36-16 36.64 36.64 0 0 0 0.8-9.12v-65.6A22.4 22.4 0 0 1 560 624a48 48 0 0 0 18.88-49.76 49.44 49.44 0 0 0-42.72-40" p-id="4968"></path><path d="M712 767.04a12.48 12.48 0 0 1-12.48 12.64H357.28a12.48 12.48 0 0 1-12.48-12.64V505.92a12.48 12.48 0 0 1 12.48-12.64h342.24a12.48 12.48 0 0 1 12.48 12.64z m34.4-280.64a38.4 38.4 0 0 0-37.92-32 38.4 38.4 0 0 1-8.64 0h-35.52a12.64 12.64 0 0 1-4.32 0h-256c-8.64 0-8.64 0-8.64-8.48v-39.2a137.92 137.92 0 0 1 86.08-128 134.88 134.88 0 0 1 161.92 52.48l32-9.76a171.2 171.2 0 0 0-28.64-36.64 167.84 167.84 0 0 0-284.96 118.56v38.56c0 16 1.92 13.12-12.96 13.28a38.24 38.24 0 0 0-39.52 40.16v280A40.96 40.96 0 0 0 350.56 816H706.72a38.24 38.24 0 0 0 40.32-41.12V497.92a61.44 61.44 0 0 0-0.64-11.52z" p-id="4969"></path></svg>