<svg id="图层_1" data-name="图层 1" xmlns="http://www.w3.org/2000/svg" viewBox="0 0 181.89 194.88"><defs><style>.cls-1{fill:#333;}</style></defs><title>ico-Formula Setting Management</title><path class="cls-1" d="M173.6,196.88H26.29C16.74,196.88,9,189.53,9,180.51V18.37C9,9.35,16.74,2,26.29,2H173.6c9.54,0,17.29,7.35,17.29,16.37V180.53C190.89,189.53,183.14,196.88,173.6,196.88ZM26.29,14.54a3.94,3.94,0,0,0-4,3.83V180.53a3.94,3.94,0,0,0,4,3.83H173.6a3.94,3.94,0,0,0,4-3.83V18.37a3.94,3.94,0,0,0-4-3.83Z" transform="translate(-9 -2)"/><path class="cls-1" d="M15.84,56.07H184V68.62H15.84ZM50.19,99.4h37.7v12.54H50.19Z" transform="translate(-9 -2)"/><path class="cls-1" d="M62.41,88H75.67v35.84H62.41Zm65.08,48.43,26.66,25.21-9.38,8.87-26.66-25.21Z" transform="translate(-9 -2)"/><path class="cls-1" d="M145,136.17l9.37,8.87-26.79,25.35-9.38-8.87Zm-5.69-52.63,9.38,8.87L60.77,175.56l-9.38-8.88Z" transform="translate(-9 -2)"/></svg>