<?xml version="1.0" encoding="UTF-8"?>
<svg width="16px" height="16px" viewBox="0 0 16 16" version="1.1" xmlns="http://www.w3.org/2000/svg" xmlns:xlink="http://www.w3.org/1999/xlink">
    <path d="M14.7500442,9.43992216 C14.8295895,9.4309936 15.5338635,9.33683788 15.8555622,8.75377591 C16.002207,8.48781307 16.1112436,8.03597386 15.7995558,7.39392928 C15.2589721,6.28083557 10.4648769,1.5262425 9.5092505,0.584414785 C9.46460771,0.525973307 9.41807097,0.481871635 9.36477018,0.445886836 C9.34907756,0.435605465 9.3336555,0.426135781 9.32093907,0.418830596 C9.15156701,0.297618641 8.70568017,0.0227272416 8.09556196,0.0018939368 C8.06742347,0.000541124801 8.04009667,0.000270562401 8.01331099,0 L7.98652531,0 C7.9600102,0.000270562401 7.93349508,0.000541124801 7.9153674,0.0016233744 C7.31877731,0.0219155544 6.88939478,0.268668464 6.68620241,0.413960473 C6.66482799,0.426676906 6.64994705,0.436417152 6.63371331,0.447239648 C6.58474151,0.480248261 6.54118097,0.521914871 6.50438448,0.57034554 C5.54172346,1.52001957 0.742758161,6.27758882 0.200551111,7.39392928 C-0.111407337,8.03597386 -0.00210012753,8.48781307 0.144544694,8.75377591 C0.465972825,9.33683788 1.17051732,9.4309936 1.2497921,9.43992216 C1.27089597,9.44235722 1.29172927,9.44343947 1.31256258,9.44343947 L1.94270241,9.44343947 L1.94270241,13.703715 C1.94270241,14.414753 2.15184714,14.9704882 2.56364312,15.3552279 C3.10368567,15.8600974 3.78225617,15.8582034 3.91266725,15.8517099 L6.64778255,15.8517099 C6.9619055,15.8517099 7.21731641,15.596299 7.21731641,15.2821761 L7.21731641,10.3273668 L8.78251989,10.3273668 L8.78251989,15.2821761 C8.78251989,15.596299 9.03820136,15.8517099 9.35232431,15.8517099 L12.0841929,15.8517099 C12.1004266,15.852251 12.117472,15.8527922 12.1377642,15.8527922 C12.3680128,15.8527922 12.9559449,15.8040909 13.4364637,15.3552279 C13.8485303,14.9702176 14.0574045,14.414753 14.0574045,13.703715 L14.0574045,11.7204926 C14.0574045,11.4063697 13.8019935,11.1509588 13.4878706,11.1509588 C13.1737477,11.1509588 12.9180662,11.4063697 12.9180662,11.7204926 L12.9180662,13.703715 C12.9180662,14.0811496 12.8333802,14.3544176 12.6664432,14.5156728 C12.5160105,14.6609648 12.3141709,14.6999258 12.2078399,14.7102072 L12.2075693,14.718324 L12.1380348,14.713995 C12.1247772,14.7131833 12.1120608,14.7126422 12.0988032,14.7126422 L9.92185816,14.7126422 L9.92185816,9.75756241 C9.92185816,9.44371003 9.66644726,9.18802856 9.35232431,9.18802856 L6.64778255,9.18802856 C6.33365961,9.18802856 6.07797814,9.44371003 6.07797814,9.75756241 L6.07797814,14.7126422 L3.85666083,14.7123717 C3.78009167,14.7107483 3.52170458,14.6977613 3.33366371,14.5156728 C3.16645615,14.3544176 3.08177011,14.0811496 3.08177011,13.703715 L3.08177011,8.87390561 C3.08177011,8.55978267 2.82635921,8.3041012 2.51223626,8.3041012 L1.3620755,8.3041012 C1.30985695,8.29409039 1.20190256,8.26216403 1.16997619,8.24160128 L1.14264939,8.22374417 L1.13913208,8.19127668 C1.13696758,8.16746719 1.13615589,8.07547597 1.22544148,7.89149354 C1.54199949,7.23943815 4.61017712,4.03462652 7.33663443,1.35037694 C7.38885297,1.31168652 7.62694788,1.15124301 7.96244526,1.13960883 L8.0081703,1.13933827 L8.04659016,1.14014996 C8.37775854,1.15151358 8.61233614,1.31222764 8.65643782,1.34469513 C11.3896592,4.03435595 14.4578368,7.23889703 14.7746654,7.89149354 C14.829319,8.00350637 14.84907,8.07926384 14.8579986,8.11957764 L14.9177929,8.14825726 L14.8471761,8.21589786 C14.8036156,8.25756447 14.7045897,8.2911142 14.6523712,8.30247782 L13.4878706,8.3041012 C13.1737477,8.3041012 12.9180662,8.55978267 12.9180662,8.87390561 C12.9180662,9.187758 13.1737477,9.44343947 13.4878706,9.44343947 L14.6875443,9.44343947 C14.7083776,9.44343947 14.7292109,9.44235722 14.7500442,9.43992216" id="Fill-1"></path>
</svg>