<svg id="图层_1" data-name="图层 1" xmlns="http://www.w3.org/2000/svg" viewBox="0 0 184.27 189.77"><defs><style>.cls-1{fill:#212121;}</style></defs><title>ico-Log management</title><path class="cls-1" d="M144.77,44.8l-.08-15.28s1.3-10.83-12-10.83H30.58s-8.93-.39-8.93,8.84V159.92s1,10.75,11.22,10.75H59a6.68,6.68,0,0,1,5.28,6.73c0,5.75-4.94,5.93-4.94,5.93l-32.69-.06s-17.31-3.22-17.39-20.1-.09-134.3-.09-134.3S7,6,31.22,6s106.07.18,106.07.18,19.07.15,19.39,18.25.29,20.76.29,20.76-.72,5.89-5.95,5.89S144.8,45.57,144.77,44.8Z" transform="translate(-9.09 -6)"/><path class="cls-1" d="M120.24,100v25.61a8.1,8.1,0,0,0,2.37,5.78c2.63,2.82,24.22,25.37,24.22,25.37a6.62,6.62,0,0,0,7.6-1.46c3.47-3.58-.49-8.37-.49-8.37L133.85,125s-1.47-1-1.47-5-.06-20.07-.06-20.07-1.65-5.27-5.81-5.27A6.3,6.3,0,0,0,120.24,100Z" transform="translate(-9.09 -6)"/><path class="cls-1" d="M132.23,69.81c-33.76,0-61.13,28.2-61.13,63s27.37,63,61.13,63,61.13-28.2,61.13-63S166,69.81,132.23,69.81Zm0,113.76C105,183.57,83,160.85,83,132.79S105,82,132.23,82s49.28,22.72,49.28,50.77S159.46,183.57,132.23,183.57ZM60.55,94.65H44a4.93,4.93,0,0,1-4.85-5V87A5,5,0,0,1,44,82H60.55a5,5,0,0,1,4.86,5v2.68A4.94,4.94,0,0,1,60.55,94.65Zm61.57-38H44.05a4.93,4.93,0,0,1-4.85-5V49a4.93,4.93,0,0,1,4.85-5h78.07A4.94,4.94,0,0,1,127,49v2.68A4.94,4.94,0,0,1,122.12,56.65Z" transform="translate(-9.09 -6)"/></svg>