<?xml version="1.0" standalone="no"?><!DOCTYPE svg PUBLIC "-//W3C//DTD SVG 1.1//EN" "http://www.w3.org/Graphics/SVG/1.1/DTD/svg11.dtd"><svg t="1543468361952" class="icon" style="" viewBox="0 0 1024 1024" version="1.1" xmlns="http://www.w3.org/2000/svg" p-id="6219" xmlns:xlink="http://www.w3.org/1999/xlink" width="200" height="200"><defs><style type="text/css"></style></defs><path d="M821.333333 787.2V454.4c0-134.4-85.333333-249.6-206.933333-292.266667C612.266667 106.666667 567.466667 64 512 64s-100.266667 42.666667-102.4 98.133333c-119.466667 42.666667-206.933333 157.866667-206.933333 292.266667v332.8h-64v53.333333h232.533333c10.666667 68.266667 70.4 119.466667 140.8 119.466667s130.133333-51.2 140.8-119.466667h232.533333v-53.333333h-64zM512 117.333333c21.333333 0 38.4 12.8 46.933333 32-14.933333-2.133333-29.866667-4.266667-46.933333-4.266666s-32 2.133333-46.933333 4.266666c8.533333-19.2 25.6-32 46.933333-32zM256 454.4c0-140.8 115.2-256 256-256s256 115.2 256 256v332.8H256V454.4z m256 452.266667c-40.533333 0-76.8-27.733333-87.466667-66.133334H597.333333c-8.533333 38.4-44.8 66.133333-85.333333 66.133334z" fill="" p-id="6220"></path></svg>