<?xml version="1.0" standalone="no"?><!DOCTYPE svg PUBLIC "-//W3C//DTD SVG 1.1//EN" "http://www.w3.org/Graphics/SVG/1.1/DTD/svg11.dtd"><svg t="1533802076518" class="icon" style="" viewBox="0 0 1024 1024" version="1.1" xmlns="http://www.w3.org/2000/svg" p-id="5652" xmlns:xlink="http://www.w3.org/1999/xlink" width="200" height="200"><defs><style type="text/css"></style></defs><path d="M812 992h-600A180.16 180.16 0 0 1 32 812v-600A180.16 180.16 0 0 1 212 32h600A180.16 180.16 0 0 1 992 212v600A180.16 180.16 0 0 1 812 992zM212 72a140.16 140.16 0 0 0-140 140v600a140.16 140.16 0 0 0 140 140h600a140.16 140.16 0 0 0 140-140v-600a140.16 140.16 0 0 0-140-140z" p-id="5653"></path><path d="M855.84 398.08L688.8 208a41.28 41.28 0 0 0-32-16 41.6 41.6 0 0 0-32 16 48 48 0 0 0-11.36 32v80h-64a21.12 21.12 0 1 0 0 42.4h85.12A21.12 21.12 0 0 0 656 340.16v-101.44a8.16 8.16 0 0 1 0-3.2l166.4 189.92a7.68 7.68 0 0 1 0 8.32L657.44 624a7.04 7.04 0 0 1 0-3.36v-110.4a21.12 21.12 0 0 0-21.12-21.12h-192V400a44.96 44.96 0 0 0-42.88-46.56 41.44 41.44 0 0 0-32 14.88L203.52 559.04a49.92 49.92 0 0 0 0 63.2l166.24 188.48a41.28 41.28 0 0 0 32 16 41.6 41.6 0 0 0 32-16 48 48 0 0 0 11.36-32v-80h65.28a21.12 21.12 0 0 0 0-42.4h-86.4a21.12 21.12 0 0 0-21.12 21.12v100.64a8.16 8.16 0 0 1 0 3.2L235.52 595.04a7.84 7.84 0 0 1 0-8.32L401.12 396.8a7.04 7.04 0 0 1 0 3.36v110.24a21.12 21.12 0 0 0 21.12 21.12h192v89.12a44.96 44.96 0 0 0 42.88 46.56 40.96 40.96 0 0 0 32-14.88l166.56-190.72a49.92 49.92 0 0 0 0.16-63.52z" p-id="5654"></path></svg>