<?xml version="1.0" standalone="no"?><!DOCTYPE svg PUBLIC "-//W3C//DTD SVG 1.1//EN" "http://www.w3.org/Graphics/SVG/1.1/DTD/svg11.dtd"><svg t="1533802029822" class="icon" style="" viewBox="0 0 1024 1024" version="1.1" xmlns="http://www.w3.org/2000/svg" p-id="4395" xmlns:xlink="http://www.w3.org/1999/xlink" width="200" height="200"><defs><style type="text/css"></style></defs><path d="M812.8 32H211.2C112 32 32 112 32 211.2v600C32 912 112 992 211.2 992h600C912 992 992 912 992 812.8V211.2C992 112 912 32 812.8 32z m139.2 780.8c0 76.8-62.4 140.8-140.8 140.8H211.2c-76.8 0-140.8-62.4-140.8-140.8V211.2c0-76.8 62.4-140.8 140.8-140.8h600c76.8 0 140.8 62.4 140.8 140.8v601.6z" p-id="4396"></path><path d="M819.2 233.6c-6.4-1.6-12.8-1.6-17.6 1.6L240 577.6c-6.4 4.8-9.6 12.8-8 19.2 1.6 8 8 12.8 16 14.4l257.6 17.6 126.4 193.6c3.2 4.8 9.6 8 16 8h3.2c8-1.6 12.8-6.4 14.4-14.4L832 254.4c1.6-9.6-3.2-17.6-12.8-20.8zM638.4 771.2l-107.2-168c-3.2-4.8-8-6.4-12.8-8l-217.6-14.4 484.8-291.2-147.2 481.6z" p-id="4397"></path></svg>