<?xml version="1.0" standalone="no"?><!DOCTYPE svg PUBLIC "-//W3C//DTD SVG 1.1//EN" "http://www.w3.org/Graphics/SVG/1.1/DTD/svg11.dtd"><svg t="1533802034255" class="icon" style="" viewBox="0 0 1024 1024" version="1.1" xmlns="http://www.w3.org/2000/svg" p-id="4509" xmlns:xlink="http://www.w3.org/1999/xlink" width="200" height="200"><defs><style type="text/css"></style></defs><path d="M812.8 32H211.2C112 32 32 112 32 211.2v600C32 912 112 992 211.2 992h600C912 992 992 912 992 812.8V211.2C992 112 912 32 812.8 32z m139.2 780.8c0 76.8-62.4 140.8-140.8 140.8H211.2c-76.8 0-140.8-62.4-140.8-140.8V211.2c0-76.8 62.4-140.8 140.8-140.8h600c76.8 0 140.8 62.4 140.8 140.8v601.6z" p-id="4510"></path><path d="M632 432H337.6l88-88c8-8 8-19.2 0-27.2s-19.2-8-27.2 0l-121.6 121.6c-8 8-8 19.2 0 27.2l121.6 121.6c8 8 19.2 8 27.2 0s8-19.2 0-27.2l-86.4-86.4h292.8c65.6 0 120 52.8 120 120 0 65.6-54.4 120-120 120H372.8c-11.2 0-19.2 9.6-19.2 19.2 0 11.2 9.6 19.2 19.2 19.2h259.2c88 0 160-72 160-160s-72-160-160-160z" p-id="4511"></path></svg>