<?xml version="1.0" standalone="no"?><!DOCTYPE svg PUBLIC "-//W3C//DTD SVG 1.1//EN" "http://www.w3.org/Graphics/SVG/1.1/DTD/svg11.dtd"><svg t="1533802072775" class="icon" style="" viewBox="0 0 1024 1024" version="1.1" xmlns="http://www.w3.org/2000/svg" p-id="5538" xmlns:xlink="http://www.w3.org/1999/xlink" width="200" height="200"><defs><style type="text/css"></style></defs><path d="M812 992h-600A180.16 180.16 0 0 1 32 812v-600A180.16 180.16 0 0 1 212 32h600A180.16 180.16 0 0 1 992 212v600A180.16 180.16 0 0 1 812 992zM212 72a140.16 140.16 0 0 0-140 140v600a140.16 140.16 0 0 0 140 140h600a140.16 140.16 0 0 0 140-140v-600a140.16 140.16 0 0 0-140-140z" p-id="5539"></path><path d="M476.16 633.6l-170.88-176a19.52 19.52 0 0 0-27.36 0 17.6 17.6 0 0 0 0 26.24L462.4 672.96a22.72 22.72 0 0 0 16 5.6 26.56 26.56 0 0 0 16-5.6L825.12 384a17.6 17.6 0 0 0 0-26.24 24.48 24.48 0 0 0-32 0z" p-id="5540"></path></svg>