<?xml version="1.0" standalone="no"?><!DOCTYPE svg PUBLIC "-//W3C//DTD SVG 1.1//EN"
        "http://www.w3.org/Graphics/SVG/1.1/DTD/svg11.dtd">
<svg t="1533802038972" class="icon" style="" viewBox="0 0 1024 1024" version="1.1" xmlns="http://www.w3.org/2000/svg"
     p-id="4623" xmlns:xlink="http://www.w3.org/1999/xlink" width="200" height="200">
    <defs>
        <style type="text/css"></style>
    </defs>
    <path d="M812.8 32H211.2C112 32 32 112 32 211.2v600C32 912 112 992 211.2 992h600C912 992 992 912 992 812.8V211.2C992 112 912 32 812.8 32z m139.2 780.8c0 76.8-62.4 140.8-140.8 140.8H211.2c-76.8 0-140.8-62.4-140.8-140.8V211.2c0-76.8 62.4-140.8 140.8-140.8h600c76.8 0 140.8 62.4 140.8 140.8v601.6z"
          p-id="4624"></path>
    <path d="M505.6 272h-17.6c-46.4 3.2-92.8 16-139.2 41.6-35.2 19.2-70.4 44.8-104 76.8-56 52.8-88 105.6-89.6 107.2-3.2 4.8-3.2 8-3.2 12.8s1.6 9.6 3.2 14.4c1.6 1.6 33.6 54.4 89.6 107.2 33.6 32 67.2 57.6 104 76.8 44.8 24 91.2 38.4 139.2 41.6h17.6c123.2 0 244.8-75.2 361.6-224 3.2-4.8 4.8-11.2 4.8-16 0-6.4-1.6-11.2-4.8-16C750.4 347.2 628.8 272 505.6 272z m0 430.4h-14.4c-89.6-4.8-164.8-59.2-211.2-104-35.2-33.6-60.8-67.2-73.6-86.4 12.8-17.6 38.4-51.2 73.6-86.4 46.4-44.8 120-97.6 211.2-104h14.4c104 0 208 64 310.4 190.4-102.4 126.4-208 190.4-310.4 190.4z"
          p-id="4625"></path>
    <path d="M512 409.6c-57.6 0-105.6 48-105.6 105.6s46.4 105.6 105.6 105.6c57.6 0 105.6-46.4 105.6-105.6s-48-105.6-105.6-105.6z m0 168c-33.6 0-62.4-27.2-62.4-62.4 0-33.6 27.2-62.4 62.4-62.4 33.6 0 62.4 27.2 62.4 62.4s-28.8 62.4-62.4 62.4z"
          p-id="4626"></path>
</svg>
